<?xml version="1.0" encoding="UTF-8" standalone="no"?>
<!-- Creator: CorelDRAW X8 -->

<svg
   xmlns:dc="http://purl.org/dc/elements/1.1/"
   xmlns:cc="http://creativecommons.org/ns#"
   xmlns:rdf="http://www.w3.org/1999/02/22-rdf-syntax-ns#"
   xmlns:svg="http://www.w3.org/2000/svg"
   xmlns="http://www.w3.org/2000/svg"
   xmlns:sodipodi="http://sodipodi.sourceforge.net/DTD/sodipodi-0.dtd"
   xmlns:inkscape="http://www.inkscape.org/namespaces/inkscape"
   xml:space="preserve"
   width="744.09448"
   height="1052.3622"
   version="1.1"
   style="clip-rule:evenodd;fill-rule:evenodd;image-rendering:optimizeQuality;shape-rendering:geometricPrecision;text-rendering:geometricPrecision"
   viewBox="0 0 21000 29700"
   id="svg2"
   inkscape:version="0.92.4 (5da689c313, 2019-01-14)"
   sodipodi:docname="MFD_stroke_font.svg"><metadata
     id="metadata1540"><rdf:RDF><cc:Work
         rdf:about=""><dc:format>image/svg+xml</dc:format><dc:type
           rdf:resource="http://purl.org/dc/dcmitype/StillImage" /><dc:title /></cc:Work></rdf:RDF></metadata><sodipodi:namedview
     pagecolor="#ffffff"
     bordercolor="#666666"
     borderopacity="1"
     objecttolerance="10"
     gridtolerance="10"
     guidetolerance="10"
     inkscape:pageopacity="0"
     inkscape:pageshadow="2"
     inkscape:window-width="2560"
     inkscape:window-height="1377"
     id="namedview1538"
     showgrid="true"
     inkscape:zoom="8"
     inkscape:cx="155.9094"
     inkscape:cy="1015.2615"
     inkscape:window-x="-8"
     inkscape:window-y="-8"
     inkscape:window-maximized="1"
     inkscape:current-layer="svg2"
     showguides="true"
     inkscape:guide-bbox="true"
     inkscape:document-units="px"
     units="px"><inkscape:grid
       type="xygrid"
       id="grid4370" /><sodipodi:guide
       position="282.22222,29351.112"
       orientation="0,1"
       id="guide4376"
       inkscape:locked="false" /><sodipodi:guide
       position="428.18403,29012.445"
       orientation="0,1"
       id="guide4302"
       inkscape:locked="false" /><sodipodi:guide
       position="987.77779,28927.778"
       orientation="0,1"
       id="guide1101"
       inkscape:locked="false" /><sodipodi:guide
       position="451.55556,28589.112"
       orientation="0,1"
       id="guide1103"
       inkscape:locked="false" /></sodipodi:namedview><defs
     id="defs4"><style
       type="text/css"
       id="style6"><![CDATA[
    .str5 {stroke:#00A0E3;stroke-width:70}
    .str1 {stroke:#2B2A29}
    .str7 {stroke:#E5097F}
    .str0 {stroke:#00A0E3}
    .str6 {stroke:#009846}
    .str2 {stroke:#2B2A29;stroke-width:7.62}
    .str3 {stroke:#00A0E3;stroke-width:70;stroke-linecap:square}
    .str4 {stroke:#00A0E3;stroke-width:70;stroke-linecap:square;stroke-linejoin:bevel}
    .fil0 {fill:none}
    .fil1 {fill:#00A0E3}
   ]]></style><clipPath
       id="id0"><rect
         x="-1770"
         y="-253"
         width="34165"
         height="37494"
         id="rect9" /></clipPath><clipPath
       id="id1"><rect
         x="-3379"
         y="-253"
         width="34165"
         height="37494"
         id="rect12" /></clipPath><clipPath
       id="id2"><rect
         x="-9711"
         y="-5500"
         width="34165"
         height="37494"
         id="rect15" /></clipPath></defs><g
     id="BottomBorder_0"
     style="stroke-width:28.22222328;stroke-miterlimit:4;stroke-dasharray:none"><metadata
       id="CorelCorpID_7"><odm
         type="0"
         value="BottomBorder"
         name="Имя" /></metadata><line
       style="fill:none;stroke:#2b2a29;stroke-width:28.22222328;stroke-miterlimit:4;stroke-dasharray:none"
       id="line181"
       y2="16915"
       x2="16922"
       y1="16915"
       x1="16912"
       class="fil0 str1" /><line
       style="fill:none;stroke:#2b2a29;stroke-width:28.22222328;stroke-miterlimit:4;stroke-dasharray:none"
       id="line183"
       y2="16905"
       x2="16922"
       y1="16916"
       x1="16922"
       class="fil0 str1" /></g><line
     style="fill:none;stroke:#000000;stroke-width:21.25810623;stroke-linecap:square;stroke-miterlimit:4;stroke-dasharray:none;stroke-opacity:1"
     id="symbol-minus"
     y2="941.55493"
     x2="3104.4446"
     y1="941.55493"
     x1="2928.1426"
     class="fil0 str3"
     inkscape:label="#line245" /><g
     id="symbol-equal"
     inkscape:label="#g4434"
     transform="matrix(0.58286722,0,0,0.666281,5115.2415,-2797.8861)"
     style="stroke:#000000;stroke-width:28.22222328;stroke-miterlimit:4;stroke-dasharray:none;stroke-opacity:1"><line
       class="fil0 str3"
       x1="2554.1985"
       y1="5555.9033"
       x2="2864.9126"
       y2="5555.9033"
       id="line247"
       style="fill:none;stroke:#000000;stroke-width:28.22222328;stroke-linecap:square;stroke-miterlimit:4;stroke-dasharray:none;stroke-opacity:1" /><line
       class="fil0 str3"
       x1="2554.1985"
       y1="5697.124"
       x2="2864.9126"
       y2="5697.124"
       id="line249"
       style="fill:none;stroke:#000000;stroke-width:28.22222328;stroke-linecap:square;stroke-miterlimit:4;stroke-dasharray:none;stroke-opacity:1" /></g><g
     id="symbol-plus"
     inkscape:label="#g4111"
     transform="matrix(0.20357639,0,0,0.17631723,984.26174,-753.73522)"
     style="stroke:#000000;stroke-width:80.44561768;stroke-miterlimit:4;stroke-dasharray:none;stroke-opacity:1"><line
       class="fil0 str3"
       x1="10911"
       y1="9615"
       x2="11801"
       y2="9615"
       id="line243"
       style="fill:none;stroke:#000000;stroke-width:80.44561768;stroke-linecap:square;stroke-miterlimit:4;stroke-dasharray:none;stroke-opacity:1" /><line
       class="fil0 str3"
       x1="11356"
       y1="10135"
       x2="11356"
       y2="9095"
       id="line255"
       style="fill:none;stroke:#000000;stroke-width:80.44561768;stroke-linecap:square;stroke-miterlimit:4;stroke-dasharray:none;stroke-opacity:1" /></g><g
     id="symbol-asterisk"
     inkscape:label="#g3482"
     inkscape:transform-center-y="-0.024860098"
     transform="matrix(0.20324482,0,0,0.2238247,3552.028,-1648.341)"
     style="stroke:#000000;stroke-width:80.99207306;stroke-miterlimit:4;stroke-dasharray:none;stroke-opacity:1"
     inkscape:transform-center-x="0.04910443"><line
       class="fil0 str3"
       x1="2600"
       y1="11445"
       x2="3491"
       y2="11445"
       id="line331"
       style="fill:none;stroke:#000000;stroke-width:80.99207306;stroke-linecap:square;stroke-miterlimit:4;stroke-dasharray:none;stroke-opacity:1" /><line
       class="fil0 str3"
       x1="2823"
       y1="11831"
       x2="3268"
       y2="11059"
       id="line333"
       style="fill:none;stroke:#000000;stroke-width:80.99207306;stroke-linecap:square;stroke-miterlimit:4;stroke-dasharray:none;stroke-opacity:1" /><line
       class="fil0 str3"
       x1="3269"
       y1="11831"
       x2="2823"
       y2="11059"
       id="line335"
       style="fill:none;stroke:#000000;stroke-width:80.99207306;stroke-linecap:square;stroke-miterlimit:4;stroke-dasharray:none;stroke-opacity:1"
       inkscape:transform-center-x="-0.49447113"
       inkscape:transform-center-y="-247.48935" /></g><path
     style="fill:none;stroke:#000000;stroke-width:17.87724876;stroke-linecap:square;stroke-miterlimit:4;stroke-dasharray:none;stroke-opacity:1"
     inkscape:connector-curvature="0"
     id="symbol-degree"
     d="m 4713.1112,772.2218 c 34.1264,0 61.617,27.4904 61.617,61.6169 0,33.8894 -27.4906,61.6169 -61.617,61.6169 -34.1264,0 -61.6169,-27.7275 -61.6169,-61.6169 0,-34.1265 27.4905,-61.6169 61.6169,-61.6169 z"
     class="fil0 str3"
     inkscape:label="#path365"
     inkscape:transform-center-y="-108.03352"
     inkscape:transform-center-x="-0.23838017" /><g
     id="symbol-octothorpe"
     inkscape:label="#g3486"
     transform="matrix(0.12297969,0,0,0.1420122,5473.095,-1000.1397)"
     style="stroke:#000000;stroke-width:78.90366364;stroke-miterlimit:4;stroke-dasharray:none;stroke-opacity:1"><g
       id="_2999794988352"
       style="stroke:#000000;stroke-width:78.90366364;stroke-miterlimit:4;stroke-dasharray:none;stroke-opacity:1"><line
         class="fil0 str3"
         x1="7522"
         y1="13027"
         x2="6879"
         y2="14513"
         id="line372"
         style="fill:none;stroke:#000000;stroke-width:78.90366364;stroke-linecap:square;stroke-miterlimit:4;stroke-dasharray:none;stroke-opacity:1" /><line
         class="fil0 str3"
         x1="8166"
         y1="13027"
         x2="7522"
         y2="14513"
         id="line374"
         style="fill:none;stroke:#000000;stroke-width:78.90366364;stroke-linecap:square;stroke-miterlimit:4;stroke-dasharray:none;stroke-opacity:1" /></g><line
       class="fil0 str3"
       x1="6901"
       y1="13474"
       x2="8401"
       y2="13476"
       id="line376"
       style="fill:none;stroke:#000000;stroke-width:78.90366364;stroke-linecap:square;stroke-miterlimit:4;stroke-dasharray:none;stroke-opacity:1" /><line
       class="fil0 str3"
       x1="6644"
       y1="14064"
       x2="8144"
       y2="14066"
       id="line378"
       style="fill:none;stroke:#000000;stroke-width:78.90366364;stroke-linecap:square;stroke-miterlimit:4;stroke-dasharray:none;stroke-opacity:1" /></g><path
     inkscape:transform-center-x="-0.091613301"
     inkscape:transform-center-y="169.70328"
     inkscape:label="#path359"
     class="fil0 str3"
     d="m 5418.6667,1101.0387 c 6.8472,0 12.3583,5.5947 12.3583,12.4419 0,6.8472 -5.5111,12.3583 -12.3583,12.3583 -6.8472,0 -12.4419,-5.5111 -12.4419,-12.3583 0,-6.8472 5.5947,-12.4419 12.4419,-12.4419 z"
     id="symbol-period"
     inkscape:connector-curvature="0"
     style="fill:none;stroke:#000000;stroke-width:8.26434898;stroke-linecap:square;stroke-miterlimit:4;stroke-dasharray:none;stroke-opacity:1" /><g
     transform="matrix(0.4997814,0,0,0.49907503,5334.0907,-1916.2899)"
     style="clip-rule:evenodd;fill-rule:evenodd;stroke:#000000;stroke-opacity:1;image-rendering:optimizeQuality;shape-rendering:geometricPrecision;text-rendering:geometricPrecision"
     id="symbol-colon"
     inkscape:label="#g4386"><path
       class="fil0 str3"
       d="m 1580.9544,5556.6358 c 23.3004,0 42.3387,18.8172 42.3387,42.1961 0,23.3788 -19.0383,42.4812 -42.3387,42.4812 -23.3005,0 -42.3386,-19.1024 -42.3386,-42.4812 0,-23.3789 19.0381,-42.1961 42.3386,-42.1961 z"
       id="path361-8"
       inkscape:connector-curvature="0"
       style="fill:none;stroke:#000000;stroke-width:28.21157074;stroke-linecap:square;stroke-miterlimit:4;stroke-dasharray:none;stroke-opacity:1" /><path
       class="fil0 str3"
       d="m 1580.9932,5783.0158 c 23.3004,0 42.3387,18.8172 42.3387,42.4812 0,23.3789 -19.0383,42.1961 -42.3387,42.1961 -23.3004,0 -42.3386,-18.8172 -42.3386,-42.1961 0,-23.664 19.0382,-42.4812 42.3386,-42.4812 z"
       id="path363-4"
       inkscape:connector-curvature="0"
       style="fill:none;stroke:#000000;stroke-width:28.21157074;stroke-linecap:square;stroke-miterlimit:4;stroke-dasharray:none;stroke-opacity:1" /></g><g
     id="A"
     inkscape:label="#g4421"
     transform="matrix(0.66666665,0,0,0.60003737,-131.70371,139.54196)"><path
       inkscape:connector-curvature="0"
       id="path4316"
       d="M 282.22223,913.33303 V 584.05933 L 451.55558,348.88879 620.88892,584.05933 v 329.27343"
       style="fill:none;fill-rule:evenodd;stroke:#000000;stroke-width:28.22222328px;stroke-linecap:butt;stroke-linejoin:bevel;stroke-opacity:1"
       sodipodi:nodetypes="ccccc" /><path
       inkscape:connector-curvature="0"
       id="path4318"
       d="m 282.22222,678.12754 h 338.6667"
       style="fill:none;fill-rule:evenodd;stroke:#000000;stroke-width:28.22222328px;stroke-linecap:butt;stroke-linejoin:bevel;stroke-opacity:1" /></g><path
     style="fill:none;fill-rule:evenodd;stroke:#000000;stroke-width:17.84929657px;stroke-linecap:butt;stroke-linejoin:bevel;stroke-opacity:1"
     d="m 1975.5556,399.68847 -56.4445,-50.8002 h -112.8889 l -56.4444,50.8002 v 237.06644 l 56.4444,50.8002 h 112.8889 l 56.4445,-50.8002 v -62.0886 h -56.4445"
     id="G"
     inkscape:connector-curvature="0"
     inkscape:label="#path4336"
     sodipodi:nodetypes="cccccccccc" /><path
     style="fill:none;fill-rule:evenodd;stroke:#000000;stroke-width:17.84930229px;stroke-linecap:butt;stroke-linejoin:bevel;stroke-opacity:1"
     d="m 2596.4446,1065.7328 56.4443,50.7999 112.8889,-10e-5 56.4445,-84.6666 V 828.66605 l -56.4445,-50.8 h -112.8889 l -56.4443,50.8 v 67.7334 l 56.4443,50.8 112.8889,-10e-5 56.4445,-50.7997"
     id="9"
     inkscape:connector-curvature="0"
     inkscape:label="#path4385"
     sodipodi:nodetypes="cccccccccccc" /><path
     style="clip-rule:evenodd;fill:none;fill-rule:evenodd;stroke:#000000;stroke-width:17.84929657px;stroke-linecap:butt;stroke-linejoin:bevel;stroke-opacity:1;image-rendering:optimizeQuality;shape-rendering:geometricPrecision;text-rendering:geometricPrecision"
     d="m 4092.2223,348.88827 -56.4444,50.8001 v 237.06664 l 56.4444,50.8 h 112.8889 l 56.4445,-50.8 V 399.68847 l -56.4445,-50.8002 z"
     id="O"
     inkscape:connector-curvature="0"
     inkscape:label="#path4352" /><g
     id="B"
     inkscape:label="#g4433"
     transform="matrix(0.66666665,0,0,0.58823664,-225.77779,146.97898)"><path
       inkscape:connector-curvature="0"
       id="path4413"
       d="m 1185.3334,433.55503 -84.6667,-84.66701 -253.99999,-10e-6 v 564.44475 l 253.99999,2.7e-4 84.6667,-84.667 V 715.77719 l -84.6667,-84.66667 84.6667,-84.66667 z"
       style="fill:none;fill-rule:evenodd;stroke:#000000;stroke-width:28.22222328px;stroke-linecap:butt;stroke-linejoin:bevel;stroke-opacity:1" /><path
       inkscape:connector-curvature="0"
       id="path4425"
       d="m 1100.6668,631.11054 -254.00008,4.8e-4"
       style="fill:none;fill-rule:evenodd;stroke:#000000;stroke-width:28.22222328px;stroke-linecap:butt;stroke-linejoin:miter;stroke-opacity:1" /></g><path
     style="fill:none;fill-rule:evenodd;stroke:#000000;stroke-width:17.84930229px;stroke-linecap:butt;stroke-linejoin:bevel;stroke-opacity:1"
     d="m 846.66672,348.8878 c -58.3554,-4e-4 -116.71074,-2e-4 -175.06614,-1e-4 l -56.4445,50.8 v 237.06664 l 56.4445,50.8002 c 56.4445,-2e-4 112.88894,-2e-4 169.33344,0"
     id="C"
     inkscape:connector-curvature="0"
     inkscape:label="#path4437"
     sodipodi:nodetypes="cccccc" /><path
     style="fill:none;fill-rule:evenodd;stroke:#000000;stroke-width:17.84929276px;stroke-linecap:butt;stroke-linejoin:bevel;stroke-opacity:1"
     d="m 1128.8889,461.77664 -56.4445,-112.88874 -169.33328,-10e-5 v 338.66654 h 169.33328 l 56.4445,-112.8888 z"
     id="D"
     inkscape:connector-curvature="0"
     inkscape:label="#path4439"
     sodipodi:nodetypes="ccccccc" /><g
     id="E"
     inkscape:label="#g4477"
     transform="matrix(0.66666676,0,0,0.60000202,-508.00029,139.55459)"><path
       inkscape:connector-curvature="0"
       id="path4445"
       d="m 2878.6668,348.88802 -338.6667,2.8e-4 v 564.44473 l 338.6667,-2.7e-4"
       style="fill:none;fill-rule:evenodd;stroke:#000000;stroke-width:28.22222328px;stroke-linecap:butt;stroke-linejoin:bevel;stroke-opacity:1" /><path
       inkscape:connector-curvature="0"
       id="path4475"
       d="m 2822.2223,631.11054 -282.2222,4.8e-4"
       style="fill:none;fill-rule:evenodd;stroke:#000000;stroke-width:28.22222328px;stroke-linecap:butt;stroke-linejoin:miter;stroke-opacity:1" /></g><g
     id="F"
     inkscape:label="#g4487"
     transform="matrix(0.66854373,0,0,0.5999994,-607.9014,139.55567)"><path
       inkscape:connector-curvature="0"
       id="path4463"
       d="m 3443.1113,348.8883 -338.6667,-2.8e-4 v 564.44474"
       style="fill:none;fill-rule:evenodd;stroke:#000000;stroke-width:28.22222328px;stroke-linecap:butt;stroke-linejoin:bevel;stroke-opacity:1" /><path
       inkscape:connector-curvature="0"
       id="path4485"
       d="m 3357.7488,584.0744 -253.3032,-4.8e-4"
       style="fill:none;fill-rule:evenodd;stroke:#000000;stroke-width:26.73816872px;stroke-linecap:butt;stroke-linejoin:miter;stroke-opacity:1" /></g><g
     id="H"
     inkscape:label="#g4499"
     transform="matrix(0.66666669,0,0,0.60000019,-790.22247,139.55492)"><path
       inkscape:connector-curvature="0"
       id="path4493"
       d="M 4233.3336,348.88802 V 913.33278"
       style="fill:none;fill-rule:evenodd;stroke:#000000;stroke-width:28.22222328px;stroke-linecap:butt;stroke-linejoin:miter;stroke-opacity:1" /><path
       inkscape:connector-curvature="0"
       id="path4495"
       d="M 4572.0003,348.88802 V 913.33278"
       style="fill:none;fill-rule:evenodd;stroke:#000000;stroke-width:28.22222328px;stroke-linecap:butt;stroke-linejoin:miter;stroke-opacity:1" /><path
       inkscape:connector-curvature="0"
       id="path4497"
       d="m 4233.3336,631.11054 338.6667,4.8e-4"
       style="fill:none;fill-rule:evenodd;stroke:#000000;stroke-width:28.22222328px;stroke-linecap:butt;stroke-linejoin:miter;stroke-opacity:1" /></g><g
     id="I"
     inkscape:label="#g4516"
     transform="matrix(0.87499996,0,0,0.59999995,2060.2223,-368.44467)"><path
       inkscape:connector-curvature="0"
       id="path4510"
       d="M 338.66669,1195.555 H 564.44448"
       style="fill:none;fill-rule:evenodd;stroke:#000000;stroke-width:28.22222328px;stroke-linecap:butt;stroke-linejoin:miter;stroke-opacity:1" /><path
       inkscape:connector-curvature="0"
       id="path4512"
       d="m 338.66669,1759.9991 225.77779,4e-4"
       style="fill:none;fill-rule:evenodd;stroke:#000000;stroke-width:28.22222328px;stroke-linecap:butt;stroke-linejoin:miter;stroke-opacity:1" /><path
       inkscape:connector-curvature="0"
       id="path4514"
       d="m 451.55558,1195.555 v 564.4445"
       style="fill:none;fill-rule:evenodd;stroke:#000000;stroke-width:28.22222328px;stroke-linecap:butt;stroke-linejoin:miter;stroke-opacity:1" /></g><g
     id="J"
     inkscape:label="#g4535"
     transform="matrix(0.66666668,0,0,0.60000011,-564.4444,145.19966)"><path
       inkscape:connector-curvature="0"
       id="path4533"
       d="m 5079.9999,339.48095 2e-4,479.7778 L 4953,903.92505 h -84.6667 l -126.9999,-103.0401"
       style="fill:none;fill-rule:evenodd;stroke:#000000;stroke-width:34.56501389px;stroke-linecap:butt;stroke-linejoin:bevel;stroke-opacity:1"
       sodipodi:nodetypes="ccccc" /></g><g
     id="K"
     inkscape:label="#g4551"
     transform="matrix(0.6666667,0,0,0.60000007,1966.1481,-368.44481)"><path
       inkscape:connector-curvature="0"
       id="path4541"
       d="m 1411.1112,1195.555 v 564.4445"
       style="fill:none;fill-rule:evenodd;stroke:#000000;stroke-width:28.22222328px;stroke-linecap:butt;stroke-linejoin:miter;stroke-opacity:1" /><path
       inkscape:connector-curvature="0"
       id="path4543"
       d="m 1749.7779,1195.555 -338.6667,338.6667"
       style="fill:none;fill-rule:evenodd;stroke:#000000;stroke-width:28.22222328px;stroke-linecap:butt;stroke-linejoin:miter;stroke-opacity:1" /><path
       inkscape:connector-curvature="0"
       id="path4549"
       d="m 1749.7779,1759.9995 -254,-305.0058"
       style="fill:none;fill-rule:evenodd;stroke:#000000;stroke-width:28.22222328px;stroke-linecap:butt;stroke-linejoin:miter;stroke-opacity:1"
       sodipodi:nodetypes="cc" /></g><path
     style="fill:none;fill-rule:evenodd;stroke:#000000;stroke-width:17.84931755px;stroke-linecap:butt;stroke-linejoin:bevel;stroke-opacity:1"
     d="M 3189.1112,348.8878 V 687.55484 H 3414.889"
     id="L"
     inkscape:connector-curvature="0"
     inkscape:label="#path4556" /><path
     style="fill:none;fill-rule:evenodd;stroke:#000000;stroke-width:17.84931564px;stroke-linecap:butt;stroke-linejoin:bevel;stroke-opacity:1"
     d="m 3471.3335,687.55531 -1e-4,-338.66704 112.8889,197.55614 112.8889,-197.55614 v 338.66704"
     id="M"
     inkscape:connector-curvature="0"
     inkscape:label="#path4560"
     sodipodi:nodetypes="ccccc" /><path
     style="fill:none;fill-rule:evenodd;stroke:#000000;stroke-width:17.84932899px;stroke-linecap:butt;stroke-linejoin:bevel;stroke-opacity:1"
     d="M 4318.0001,693.20006 V 354.53252 h 169.3333 l 56.4444,50.8002 1e-4,67.73354 -56.4445,50.8001 h -169.3333"
     id="P"
     inkscape:connector-curvature="0"
     inkscape:label="#path4572" /><g
     id="Q"
     inkscape:label="#g4593"
     transform="matrix(0.66666666,0,0,0.59999926,4412.0741,-876.44348)"><path
       inkscape:label="#path4587"
       inkscape:connector-curvature="0"
       id="SDFPATHDD"
       d="m 366.88891,2042.2221 -84.66667,84.666 v 395.1114 l 84.66667,84.6667 h 169.33334 l 84.66667,-84.6667 v -395.1114 l -84.66666,-84.666 z"
       style="fill:none;fill-rule:evenodd;stroke:#000000;stroke-width:28.22222328px;stroke-linecap:butt;stroke-linejoin:bevel;stroke-opacity:1" /><path
       inkscape:connector-curvature="0"
       id="path4591"
       d="m 479.77781,2465.5551 141.11112,141.1111"
       style="fill:none;fill-rule:evenodd;stroke:#000000;stroke-width:28.22222328px;stroke-linecap:butt;stroke-linejoin:miter;stroke-opacity:1" /></g><g
     id="R"
     inkscape:label="#g4627"
     transform="matrix(0.66666668,0,0,0.59999993,4318,-870.80018)"><path
       inkscape:connector-curvature="0"
       id="path4603"
       d="m 846.66672,2606.6661 v -564.4444 h 254.00008 l 84.6666,84.6667 v 112.8887 l -84.6667,84.6669 H 846.66671"
       style="fill:none;fill-rule:evenodd;stroke:#000000;stroke-width:28.22222328px;stroke-linecap:butt;stroke-linejoin:bevel;stroke-opacity:1" /><path
       inkscape:connector-curvature="0"
       id="path4605"
       d="M 1185.3334,2606.6661 987.77784,2324.4441"
       style="fill:none;fill-rule:evenodd;stroke:#000000;stroke-width:28.22222328px;stroke-linecap:butt;stroke-linejoin:bevel;stroke-opacity:1" /></g><path
     style="fill:none;fill-rule:evenodd;stroke:#000000;stroke-width:17.84930038px;stroke-linecap:butt;stroke-linejoin:bevel;stroke-opacity:1"
     d="m 5390.4445,399.6878 -56.4444,-50.7998 -112.8889,-2e-4 -56.4445,50.7998 v 67.73344 l 56.4445,50.8001 h 112.8889 l 56.4444,50.8002 v 67.7328 l -56.4444,50.8003 h -112.8889 l -56.4445,-50.8003"
     id="S"
     inkscape:connector-curvature="0"
     inkscape:label="#path4611" /><g
     id="T"
     inkscape:label="#g4621"
     transform="matrix(0.66666637,0,0,0.60000125,4129.8525,-876.44754)"><path
       inkscape:connector-curvature="0"
       id="path4617"
       d="m 1975.5557,2042.2217 h 338.6667"
       style="fill:none;fill-rule:evenodd;stroke:#000000;stroke-width:28.22222328px;stroke-linecap:butt;stroke-linejoin:miter;stroke-opacity:1" /><path
       inkscape:connector-curvature="0"
       id="path4619"
       d="M 2144.889,2606.6662 V 2042.2221"
       style="fill:none;fill-rule:evenodd;stroke:#000000;stroke-width:28.22222328px;stroke-linecap:butt;stroke-linejoin:miter;stroke-opacity:1" /></g><path
     style="fill:none;fill-rule:evenodd;stroke:#000000;stroke-width:17.84931946px;stroke-linecap:butt;stroke-linejoin:bevel;stroke-opacity:1"
     d="m 5729.1112,348.8875 v 287.86714 l 56.4444,50.8003 h 112.8889 l 56.4444,-50.8001 V 348.8877"
     id="U"
     inkscape:connector-curvature="0"
     inkscape:label="#path4639" /><path
     style="fill:none;fill-rule:evenodd;stroke:#000000;stroke-width:17.84931374px;stroke-linecap:butt;stroke-linejoin:bevel;stroke-opacity:1"
     d="M 6011.3334,348.8878 6124.2223,687.55494 6237.1112,348.8878"
     id="V"
     inkscape:connector-curvature="0"
     inkscape:label="#path4641" /><path
     style="fill:none;fill-rule:evenodd;stroke:#000000;stroke-width:17.84931374px;stroke-linecap:butt;stroke-linejoin:bevel;stroke-opacity:1"
     d="m 6293.5556,348.88827 v 254.00054 l 28.2223,84.6665 84.6666,-56.4443 v -84.6666 84.6666 l 84.6667,56.4443 28.2222,-84.2089 V 348.88827"
     id="W"
     inkscape:connector-curvature="0"
     inkscape:label="#path4643"
     sodipodi:nodetypes="ccccccccc" /><g
     id="X"
     inkscape:label="#g4649"
     transform="matrix(0.66666669,0,0,0.60000043,3753.5554,-876.44634)"><path
       inkscape:connector-curvature="0"
       id="path4645"
       d="m 4233.3336,2042.2221 338.6667,564.444"
       style="fill:none;fill-rule:evenodd;stroke:#000000;stroke-width:28.22222328px;stroke-linecap:butt;stroke-linejoin:miter;stroke-opacity:1" /><path
       inkscape:connector-curvature="0"
       id="path4647"
       d="m 4572.0003,2042.2221 -338.6667,564.4441"
       style="fill:none;fill-rule:evenodd;stroke:#000000;stroke-width:28.22222328px;stroke-linecap:butt;stroke-linejoin:miter;stroke-opacity:1" /></g><g
     id="Y"
     inkscape:label="#g4659"
     transform="matrix(0.66666669,0,0,0.5999999,6669.8519,-1384.4444)"><path
       inkscape:connector-curvature="0"
       id="path4655"
       d="m 282.22223,2888.8884 169.33335,282.2222 169.33334,-282.2225"
       style="fill:none;fill-rule:evenodd;stroke:#000000;stroke-width:28.22222328px;stroke-linecap:butt;stroke-linejoin:miter;stroke-opacity:1" /><path
       inkscape:connector-curvature="0"
       id="path4657"
       d="m 451.55558,3171.1106 v 282.2225"
       style="fill:none;fill-rule:evenodd;stroke:#000000;stroke-width:28.22222328px;stroke-linecap:butt;stroke-linejoin:miter;stroke-opacity:1" /></g><path
     style="fill:none;fill-rule:evenodd;stroke:#000000;stroke-width:17.84929657px;stroke-linecap:butt;stroke-linejoin:bevel;stroke-opacity:1"
     d="m 7140.2223,348.88827 h 225.7778 l -225.7778,338.66674 225.7778,-1e-4"
     id="Z"
     inkscape:connector-curvature="0"
     inkscape:label="#path4663" /><g
     id="1"
     inkscape:label="#g4679"
     transform="matrix(1,0,0,0.60000074,-1608.4463,-961.11339)"><path
       inkscape:connector-curvature="0"
       id="path4675"
       d="m 2009.6348,3023.7635 50.3671,-99.7905 v -35.0849 l -1e-4,564.4448"
       style="fill:none;fill-rule:evenodd;stroke:#000000;stroke-width:18.21735573;stroke-linecap:butt;stroke-linejoin:bevel;stroke-miterlimit:4;stroke-dasharray:none;stroke-opacity:1"
       sodipodi:nodetypes="cccc" /><path
       inkscape:connector-curvature="0"
       id="path4677"
       d="m 1989.4464,3453.3329 h 141.8997"
       style="fill:none;fill-rule:evenodd;stroke:#000000;stroke-width:22.3738842px;stroke-linecap:butt;stroke-linejoin:miter;stroke-opacity:1" /></g><path
     style="fill:none;fill-rule:evenodd;stroke:#000000;stroke-width:17.84930229px;stroke-linecap:butt;stroke-linejoin:bevel;stroke-opacity:1"
     d="m 620.88894,823.02181 56.4444,-50.8002 h 112.889 l 56.4444,50.8002 v 47.537 L 620.88894,1042.538 v 68.3505 l 225.7778,10e-5"
     id="2"
     inkscape:connector-curvature="0"
     inkscape:label="#path4687"
     sodipodi:nodetypes="cccccccc" /><g
     id="3"
     inkscape:label="#g4701"
     transform="matrix(0.66666678,0,0,0.59999965,-1166.519,-961.11023)"><path
       inkscape:connector-curvature="0"
       id="path4693"
       d="m 3104.4446,2973.555 84.6667,-84.6666 h 169.3333 l 84.6667,84.6667 v 112.8889 l -42.3334,84.6667 42.3334,84.6666 v 112.8889 l -84.6667,84.6667 h -169.3333 l -84.6667,-84.6668"
       style="fill:none;fill-rule:evenodd;stroke:#000000;stroke-width:28.22222328px;stroke-linecap:butt;stroke-linejoin:bevel;stroke-opacity:1"
       sodipodi:nodetypes="ccccccccccc" /><path
       inkscape:connector-curvature="0"
       id="path4699"
       d="m 3254.3745,3171.1101 146.4039,6e-4"
       style="fill:none;fill-rule:evenodd;stroke:#000000;stroke-width:28.74604034px;stroke-linecap:butt;stroke-linejoin:miter;stroke-opacity:1" /></g><path
     style="fill:none;fill-rule:evenodd;stroke:#000000;stroke-width:17.84928703px;stroke-linecap:butt;stroke-linejoin:bevel;stroke-opacity:1"
     d="m 1467.5556,1110.8883 c 56.4444,10e-5 112.8888,0 169.3333,-10e-5 l 56.4444,-50.7999 -10e-5,-101.5997 -56.4443,-45.1557 H 1467.5556 V 772.2218 l 225.7777,2e-4"
     id="5"
     inkscape:connector-curvature="0"
     inkscape:label="#path4725"
     sodipodi:nodetypes="cccccccc" /><path
     style="fill:none;fill-rule:evenodd;stroke:#000000;stroke-width:17.84930992px;stroke-linecap:butt;stroke-linejoin:miter;stroke-opacity:1"
     d="m 1975.5556,823.02168 -56.4445,-50.8002 h -112.8889 l -56.4444,84.6668 v 203.20022 l 56.4444,50.7998 h 112.8889 l 56.4445,-50.7997 v -67.73352 l -56.4445,-50.8 h -112.8889 l -56.4444,50.8"
     id="6"
     inkscape:connector-curvature="0"
     inkscape:label="#path4731"
     sodipodi:nodetypes="cccccccccccc" /><path
     style="fill:none;fill-rule:evenodd;stroke:#000000;stroke-width:17.84929848px;stroke-linecap:butt;stroke-linejoin:bevel;stroke-opacity:1"
     d="m 2032,772.2218 h 225.7777 l 10e-5,84.6667 L 2032,1110.8883"
     id="7"
     inkscape:connector-curvature="0"
     inkscape:label="#path4735"
     sodipodi:nodetypes="cccc" /><g
     id="4"
     inkscape:label="#g4745"
     transform="matrix(0.86278915,0,0,0.60000054,-2029.9595,-961.11347)"><path
       inkscape:connector-curvature="0"
       id="path4705"
       d="m 3922.8891,2888.8884 v 564.4445"
       style="fill:none;fill-rule:evenodd;stroke:#000000;stroke-width:28.22222328px;stroke-linecap:butt;stroke-linejoin:bevel;stroke-opacity:1" /><path
       inkscape:connector-curvature="0"
       id="path4741"
       d="m 3955.5996,3265.1851 h -196.2627 v -47.0369 l 163.5522,-329.259"
       style="fill:none;fill-rule:evenodd;stroke:#000000;stroke-width:28.22222328px;stroke-linecap:butt;stroke-linejoin:bevel;stroke-opacity:1"
       sodipodi:nodetypes="cccc" /></g><g
     id="8"
     inkscape:label="#g4753"
     transform="matrix(0.66666672,0,0,0.60000096,1373.4814,-1469.1153)"><path
       inkscape:connector-curvature="0"
       id="path4749"
       d="m 1495.7779,3735.5551 -84.6667,84.6667 v 112.8893 l 84.6667,84.666 -84.6667,84.667 v 112.889 l 84.6667,84.6661 h 169.3333 l 84.6667,-84.6661 v -112.889 l -84.6667,-84.6667 84.6667,-84.6663 v -112.889 l -84.6667,-84.667 z"
       style="fill:none;fill-rule:evenodd;stroke:#000000;stroke-width:28.22222328px;stroke-linecap:butt;stroke-linejoin:bevel;stroke-opacity:1" /><path
       inkscape:connector-curvature="0"
       id="path4751"
       d="m 1495.7779,4017.7773 h 169.3333"
       style="fill:none;fill-rule:evenodd;stroke:#000000;stroke-width:28.22222328px;stroke-linecap:butt;stroke-linejoin:bevel;stroke-opacity:1" /></g><path
     style="fill:none;fill-rule:evenodd;stroke:#000000;stroke-width:18.3105278px;stroke-linecap:butt;stroke-linejoin:miter;stroke-opacity:1"
     d="m 3640.6667,772.22161 -62.3689,112.8894"
     id="symbol-apostrophe"
     inkscape:connector-curvature="0"
     inkscape:transform-center-x="25.314066"
     inkscape:transform-center-y="-112.87725"
     inkscape:label="#path4763" /><path
     style="fill:none;fill-rule:evenodd;stroke:#000000;stroke-width:16.93334579px;stroke-linecap:butt;stroke-linejoin:bevel;stroke-opacity:1"
     d="m 3838.7102,772.22141 -84.6667,84.6668 v 169.33329 l 84.6667,84.667"
     id="symbol-parenthesis-left"
     inkscape:connector-curvature="0"
     inkscape:transform-center-x="-8.4970556"
     inkscape:label="#path4773" /><path
     style="fill:none;fill-rule:evenodd;stroke:#000000;stroke-width:16.88446999px;stroke-linecap:butt;stroke-linejoin:bevel;stroke-opacity:1"
     d="m 3895.1546,772.22191 84.1788,84.6664 v 169.33329 l -84.1788,84.6666"
     id="symbol-parenthesis-right"
     inkscape:connector-curvature="0"
     inkscape:label="#path4806"
     inkscape:transform-center-x="8.3647598"
     inkscape:transform-center-y="0.018052402" /><g
     id="symbol-percent"
     inkscape:label="#g4815"
     transform="matrix(0.58333332,0,0,0.60000003,3494.8519,-1977.1116)"><path
       class="fil0 str3"
       d="m 1495.9891,4596.3551 c 39.0563,0 70.7,31.3585 70.7,70.4151 0,39.056 -31.6437,70.6995 -70.7,70.6995 -39.0557,0 -70.4146,-31.6435 -70.4146,-70.6995 0,-39.0566 31.3589,-70.4151 70.4146,-70.4151 z"
       id="path355"
       inkscape:connector-curvature="0"
       style="fill:none;stroke:#000000;stroke-width:28.22222328;stroke-linecap:square;stroke-miterlimit:4;stroke-dasharray:none;stroke-opacity:1" /><path
       class="fil0 str3"
       d="m 1664.5231,4991.94 c 38.9764,0 70.5559,31.6429 70.5559,70.6981 0,38.7708 -31.5795,70.4137 -70.5559,70.4137 -38.9763,0 -70.5558,-31.6429 -70.5558,-70.4137 0,-39.0552 31.5795,-70.6981 70.5558,-70.6981 z"
       id="path357"
       inkscape:connector-curvature="0"
       style="fill:none;stroke:#000000;stroke-width:28.22163582;stroke-linecap:square;stroke-miterlimit:4;stroke-dasharray:none;stroke-opacity:1" /><path
       inkscape:connector-curvature="0"
       id="path4811"
       d="m 1749.7779,4582.2218 -338.6667,564.4445"
       style="fill:none;fill-rule:evenodd;stroke:#000000;stroke-width:28.22222328px;stroke-linecap:butt;stroke-linejoin:miter;stroke-opacity:1" /></g><path
     style="fill:none;fill-rule:evenodd;stroke:#000000;stroke-width:8.1470623px;stroke-linecap:butt;stroke-linejoin:miter;stroke-opacity:1"
     d="m 5319.0052,1110.8878 -28.2223,56.4445"
     id="symbol-comma"
     inkscape:connector-curvature="0"
     inkscape:label="#path4826"
     inkscape:transform-center-x="13.741446"
     inkscape:transform-center-y="197.42485" /><path
     style="fill:none;fill-rule:evenodd;stroke:#000000;stroke-width:13.55752563px;stroke-linecap:butt;stroke-linejoin:miter;stroke-opacity:1"
     d="m 5051.7779,772.2218 -225.7778,338.6671"
     id="symbol-slash"
     inkscape:connector-curvature="0"
     inkscape:label="#path4852" /><path
     style="fill:none;fill-rule:evenodd;stroke:#000000;stroke-width:17.84931564px;stroke-linecap:butt;stroke-linejoin:miter;stroke-opacity:1"
     d="m 5108.2223,772.22161 112.8889,338.66689"
     id="symbol-backslash"
     inkscape:connector-curvature="0"
     inkscape:label="#path4854" /><g
     id="symbol-quote"
     inkscape:label="#g4879"
     inkscape:transform-center-x="7.25956"
     inkscape:transform-center-y="-127.29835"
     transform="matrix(0.51432295,0,0,0.41777664,5342.8562,-1495.8413)"><path
       inkscape:connector-curvature="0"
       id="path4875"
       d="m 476.63405,5428.8876 -54.87257,202.6612"
       style="fill:none;fill-rule:evenodd;stroke:#000000;stroke-width:28.22222328px;stroke-linecap:butt;stroke-linejoin:miter;stroke-opacity:1"
       sodipodi:nodetypes="cc" /><path
       inkscape:connector-curvature="0"
       id="path4877"
       d="m 399.63292,5428.8876 -62.3747,202.6601"
       style="fill:none;fill-rule:evenodd;stroke:#000000;stroke-width:28.22222328px;stroke-linecap:butt;stroke-linejoin:miter;stroke-opacity:1"
       sodipodi:nodetypes="cc" /></g><g
     id="symbol-question"
     inkscape:label="#g4901"
     inkscape:transform-center-x="0.1645275"
     inkscape:transform-center-y="0.55558964"
     transform="matrix(0.8009307,0,0,0.59708263,5046.7735,-2469.3916)"><ellipse
       class="fil1"
       id="circle369"
       style="fill:none;stroke:#000000;stroke-width:20.1423912;stroke-miterlimit:4;stroke-dasharray:none;stroke-opacity:1"
       ry="25.37895"
       rx="16.356392"
       cy="5970.0986"
       cx="1016.3888" /><path
       inkscape:connector-curvature="0"
       id="path4897"
       d="m 875.05525,5523.6203 70.47357,-94.5338 H 1086.476 l 70.4735,94.5338 V 5639.738 L 1016,5795.7772 l 10e-5,84.667"
       style="fill:none;fill-rule:evenodd;stroke:#000000;stroke-width:28.22222328px;stroke-linecap:butt;stroke-linejoin:bevel;stroke-opacity:1"
       sodipodi:nodetypes="ccccccc" /></g><line
     style="clip-rule:evenodd;fill:none;fill-rule:evenodd;stroke:#000000;stroke-width:22.80977631;stroke-linecap:square;stroke-miterlimit:4;stroke-dasharray:none;stroke-opacity:1;image-rendering:optimizeQuality;shape-rendering:geometricPrecision;text-rendering:geometricPrecision"
     id="symbol-underscore"
     y2="932.41766"
     x2="7112"
     y1="932.41766"
     x1="6909.0215"
     class="fil0 str3"
     inkscape:label="#line245"
     inkscape:transform-center-y="169.00343"
     inkscape:transform-center-x="5.3900619e-006" /><g
     id="N"
     inkscape:label="#g1093"
     transform="translate(3471.3334,4.6999057e-4)"><path
       sodipodi:nodetypes="cccc"
       inkscape:label="#path4562"
       inkscape:connector-curvature="0"
       id="ath4562"
       d="M 282.22222,687.55494 V 348.8878 m 225.77779,338.66714 c 0,-112.88905 0,-225.77809 0,-338.66714"
       style="fill:none;fill-rule:evenodd;stroke:#000000;stroke-width:17.83644485;stroke-linecap:butt;stroke-linejoin:bevel;stroke-miterlimit:4;stroke-dasharray:none;stroke-opacity:1" /><path
       inkscape:connector-curvature="0"
       id="path1089"
       d="M 282.22223,392.98545 508.00001,647.6469"
       style="fill:none;stroke:#000000;stroke-width:18.34444427;stroke-linecap:butt;stroke-linejoin:miter;stroke-miterlimit:4;stroke-dasharray:none;stroke-opacity:1" /></g><g
     id="0"
     inkscape:label="#g1099"
     transform="translate(-225.77778,423.33386)"><path
       inkscape:label="#path4352"
       inkscape:connector-curvature="0"
       id="00"
       d="M 338.66668,348.88794 282.2222,399.6881 v 237.06674 l 56.44448,50.8001 H 451.55556 L 508.00004,636.7549 V 399.68816 l -56.44448,-50.80022 z"
       style="fill:none;fill-rule:evenodd;stroke:#000000;stroke-width:17.84930611px;stroke-linecap:butt;stroke-linejoin:bevel;stroke-opacity:1" /></g></svg>